<svg xmlns="http://www.w3.org/2000/svg" xmlns:xlink="http://www.w3.org/1999/xlink" version="1.1" x="0px" y="0px" viewBox="0 0 100 125" enable-background="new 0 0 100 100" xml:space="preserve"><path fill="#000000" d="M50,5C36.052,5,15.034,34.859,15.034,57.969C15.034,81.079,30.689,95,50,95  c19.311,0,34.966-13.921,34.966-37.031C84.966,34.859,63.948,5,50,5z M67.751,29.786c1.251-0.712,2.973-0.045,3.846,1.488  c0.873,1.534,0.566,3.354-0.686,4.066c-1.251,0.712-2.973,0.045-3.846-1.488C66.192,32.319,66.499,30.498,67.751,29.786z   M65.902,52.574c1.44,0,2.607,1.431,2.607,3.195c0,1.765-1.167,3.195-2.607,3.195c-1.44,0-2.607-1.431-2.607-3.195  C63.295,54.005,64.462,52.574,65.902,52.574z M55.412,15.68c1.432-0.147,2.739,1.158,2.919,2.913  c0.18,1.756-0.835,3.298-2.268,3.444c-1.432,0.147-2.739-1.158-2.919-2.913C52.964,17.369,53.979,15.827,55.412,15.68z   M42.692,11.904c1.106-1.375,2.912-1.759,4.034-0.856c1.122,0.902,1.135,2.748,0.029,4.124c-1.106,1.375-2.912,1.759-4.034,0.856  C41.599,15.126,41.586,13.28,42.692,11.904z M41.537,28.601c1.007-1.449,2.781-1.959,3.964-1.138  c1.182,0.821,1.325,2.662,0.318,4.111c-1.007,1.449-2.781,1.959-3.964,1.138C40.673,31.891,40.53,30.05,41.537,28.601z   M23.475,63.667c-1.437-0.08-2.524-1.572-2.426-3.335c0.097-1.762,1.342-3.126,2.779-3.046c1.437,0.08,2.524,1.572,2.426,3.335  C26.157,62.382,24.912,63.746,23.475,63.667z M29.843,46.125c1.437,0.08,2.524,1.572,2.426,3.335  c-0.098,1.762-1.342,3.126-2.779,3.046c-1.437-0.08-2.524-1.572-2.426-3.335C27.161,47.409,28.405,46.045,29.843,46.125z   M32.695,78.352c-0.469,1.701-1.975,2.77-3.363,2.387c-1.388-0.383-2.132-2.073-1.663-3.774c0.469-1.701,1.975-2.77,3.363-2.387  S33.165,76.651,32.695,78.352z M33.46,33.323c-0.514,1.688-2.048,2.717-3.425,2.297c-1.377-0.42-2.077-2.128-1.562-3.816  s2.048-2.717,3.425-2.297C33.275,29.927,33.974,31.635,33.46,33.323z M34.685,61.955c-0.576-1.668,0.06-3.401,1.42-3.871  c1.361-0.47,2.931,0.501,3.507,2.169c0.576,1.668-0.06,3.401-1.42,3.871C36.832,64.594,35.262,63.623,34.685,61.955z M43.582,87.787  c-0.469,1.701-1.975,2.77-3.363,2.387c-1.388-0.383-2.132-2.072-1.663-3.774c0.469-1.701,1.975-2.77,3.363-2.387  C43.307,84.396,44.051,86.086,43.582,87.787z M41.694,47.959c-1.437-0.08-2.524-1.573-2.426-3.335  c0.098-1.762,1.342-3.126,2.779-3.046c1.437,0.08,2.524,1.572,2.426,3.335C44.376,46.674,43.132,48.038,41.694,47.959z   M49.906,75.056c-0.385,1.722-1.836,2.864-3.241,2.55c-1.405-0.314-2.232-1.965-1.847-3.687c0.385-1.722,1.836-2.864,3.241-2.55  C49.464,71.683,50.291,73.334,49.906,75.056z M48.954,58.816c-0.576-1.668,0.06-3.401,1.42-3.871  c1.361-0.47,2.931,0.501,3.507,2.169c0.576,1.668-0.06,3.401-1.42,3.871C51.1,61.455,49.53,60.484,48.954,58.816z M54.094,91.108  c-1.44,0-2.607-1.431-2.607-3.195c0-1.765,1.167-3.195,2.607-3.195c1.44,0,2.607,1.431,2.607,3.195  C56.701,89.678,55.534,91.108,54.094,91.108z M56.067,47.733c-1.361,0.47-2.931-0.501-3.507-2.169  c-0.576-1.668,0.06-3.401,1.42-3.871c1.361-0.47,2.931,0.501,3.507,2.169C58.064,45.53,57.428,47.263,56.067,47.733z M58.282,33.23  c-1.416,0.262-2.823-0.933-3.144-2.668c-0.321-1.735,0.567-3.354,1.982-3.616c1.416-0.262,2.823,0.933,3.144,2.668  C60.585,31.349,59.697,32.968,58.282,33.23z M65.839,70.509c-0.385,1.722-1.836,2.864-3.241,2.55  c-1.405-0.314-2.232-1.965-1.847-3.687c0.385-1.722,1.836-2.864,3.241-2.55C65.397,67.136,66.224,68.787,65.839,70.509z   M70.374,83.817c-1.361,0.47-2.931-0.501-3.507-2.169s0.06-3.401,1.42-3.871s2.931,0.501,3.507,2.169  C72.371,81.614,71.735,83.347,70.374,83.817z M71.612,45.142c-0.873-1.534-0.566-3.354,0.686-4.066  c1.251-0.712,2.973-0.045,3.846,1.488c0.873,1.534,0.566,3.354-0.686,4.066C74.207,47.342,72.485,46.676,71.612,45.142z   M77.667,68.36c-1.363,0.463-2.928-0.517-3.495-2.188c-0.567-1.671,0.079-3.401,1.442-3.863c1.363-0.463,2.928,0.517,3.495,2.188  C79.676,66.168,79.03,67.898,77.667,68.36z"/></svg>