<svg xmlns="http://www.w3.org/2000/svg" xmlns:xlink="http://www.w3.org/1999/xlink" version="1.1" x="0px" y="0px" viewBox="0 0 100 125" enable-background="new 0 0 100 100" xml:space="preserve"><g><path fill="#000000" d="M79.938,7.875C77.853,7.458,68.59,9.421,65.125,19.562c-2.562,7.5-1.478,9.999-1.688,11.062   c-0.206,1.043-2.562,6.125-10.375,8.812s-32.688,20.123-35.75,26.438c-2,4.125,0.938,0.75,0.938,0.75s-5,5.875-5.125,6.375   S2.875,80.938,2.25,82.312s13.188-1.125,15.812-3.625s9,0.625,11.312-0.375s-0.551,2.395,6-0.125   c1.625-0.625-0.188,2.312,6.688-0.125c1.066-0.378,2.66,2.3,4.438,1.688c3.812-1.312,8.875,1.062,11-1.062s22.989-8.581,25-28.375   c1.308-12.875-1.042-15.993-1.438-17.375c-0.369-1.291-1.938-5.062-1.562-9.125s5.562-5.552,7-5.312   c1.875,0.312-1.967-3.332-2.875-3.938C82.688,13.938,84.312,8.75,79.938,7.875z"/><path fill="#000000" d="M80.094,7.562c-0.294,0.587,0.031-4.875,6.25-6.094s5.73,10.304,2.344,8.188   c-2.5-1.562,0.988-4.812-2.99-5.719S80.25,7.25,80.094,7.562z"/><path fill="#000000" d="M47.207,79.876c0.042,1.041,1.125,7.959,0.625,8.125s-2.167,2.209-1.667,2.25s1.554-1,1.798-1.167   c0.117-0.08,1.436,0.746,3.1,1.521c1.802,0.839,3.99,1.64,5.019,1.812c1.683,0.283-0.875-1.666-1.875-2.041   s3.541,0.707,3.666,0.041s-4.301-0.499-5.9-2.291s-2.517-6.005-2.682-8.459C49.25,79.072,47.207,79.876,47.207,79.876z"/><path fill="#000000" d="M52.291,79.459c-0.579-0.234,5.917,8.875,6.042,9.75s-2.124,2.333-1.583,3.583s2.292-1.333,2.375-1.625   S64.958,96.875,70.208,96s-1.792-0.791-3.125-2.25c-0.875-0.958,4.292,0.812,8.125-1.125c1.889-0.955-8.499,0.584-10.958-1.291   s-7.541-8.792-7.75-9.667s1.754-3.604,1.377-3.542S52.499,79.543,52.291,79.459z"/><path fill="#000000" d="M63.594,90.438c1.906,0.281,4.863-0.994,6.5-0.219c0.594,0.281-3.657,1.534-4.5,1.469   S63.164,90.374,63.594,90.438z"/></g></svg>