<svg width="22" height="24" viewBox="0 0 22 24" fill="none" xmlns="http://www.w3.org/2000/svg">
<path d="M10.9914 1.78906C5.67832 1.78672 1.375 6.47891 1.375 12.2703C1.375 16.85 4.06699 20.743 7.81601 22.1727C8.3209 22.3109 8.24355 21.9195 8.24355 21.6523V19.8359C5.32812 20.2086 5.20996 18.1039 5.01445 17.7523C4.61914 17.0164 3.68457 16.8289 3.96387 16.4773C4.62773 16.1047 5.30449 16.5711 6.08867 17.8344C6.65586 18.7508 7.7623 18.5961 8.32305 18.4438C8.44551 17.893 8.70762 17.4008 9.06855 17.0188C6.04785 16.4281 4.78887 14.4172 4.78887 12.0266C4.78887 10.8664 5.13906 9.8 5.82656 8.93985C5.38828 7.52188 5.86738 6.30781 5.93184 6.12734C7.18008 6.00547 8.47773 7.10234 8.57871 7.18906C9.28769 6.98047 10.0977 6.87031 11.0043 6.87031C11.9152 6.87031 12.7273 6.98516 13.4428 7.19609C13.6855 6.99453 14.8887 6.05234 16.0488 6.16719C16.1111 6.34766 16.5795 7.5336 16.167 8.93281C16.8631 9.79531 17.2176 10.8711 17.2176 12.0336C17.2176 14.4289 15.95 16.4422 12.9207 17.0234C13.1802 17.3018 13.3862 17.6338 13.5267 18C13.6673 18.3662 13.7395 18.7593 13.7393 19.1563V21.793C13.7564 22.0039 13.7393 22.2125 14.0615 22.2125C17.8664 20.8133 20.6057 16.8922 20.6057 12.2727C20.6057 6.47891 16.3002 1.78906 10.9914 1.78906Z" fill="black"/>
</svg>
