<svg width="22" height="24" viewBox="0 0 22 24" fill="none" xmlns="http://www.w3.org/2000/svg">
<path d="M12.3331 15.5965C12.3008 15.5616 12.2572 15.542 12.2117 15.542C12.1663 15.542 12.1226 15.5616 12.0903 15.5965L9.59385 18.3199C8.43799 19.5809 6.48721 19.7145 5.21104 18.3199C3.93271 16.9254 4.05518 14.7996 5.21104 13.5387L7.70752 10.8152C7.77412 10.7426 7.77412 10.623 7.70752 10.5504L6.85244 9.61758C6.82014 9.58268 6.77652 9.56311 6.73105 9.56311C6.68559 9.56311 6.64197 9.58268 6.60967 9.61758L4.11318 12.341C2.29561 14.3238 2.29561 17.5324 4.11318 19.5129C5.93076 21.4934 8.87197 21.4957 10.6874 19.5129L13.1839 16.7895C13.2505 16.7168 13.2505 16.5973 13.1839 16.5246L12.3331 15.5965ZM17.889 4.48711C16.0714 2.5043 13.1302 2.5043 11.3147 4.48711L8.81611 7.21055C8.78413 7.24579 8.76618 7.29338 8.76618 7.34297C8.76618 7.39256 8.78413 7.44015 8.81611 7.47539L9.66904 8.40586C9.73564 8.47852 9.84521 8.47852 9.91182 8.40586L12.4083 5.68242C13.5642 4.42148 15.5149 4.28789 16.7911 5.68242C18.0694 7.07695 17.947 9.20273 16.7911 10.4637L14.2946 13.1871C14.2626 13.2224 14.2447 13.2699 14.2447 13.3195C14.2447 13.3691 14.2626 13.4167 14.2946 13.452L15.1497 14.3848C15.2163 14.4574 15.3259 14.4574 15.3925 14.3848L17.889 11.6613C19.7044 9.67852 19.7044 6.46992 17.889 4.48711ZM13.1087 8.72695C13.0764 8.69206 13.0328 8.67248 12.9873 8.67248C12.9418 8.67248 12.8982 8.69206 12.8659 8.72695L7.99971 14.0332C7.96772 14.0684 7.94978 14.116 7.94978 14.1656C7.94978 14.2152 7.96772 14.2628 7.99971 14.298L8.85049 15.2262C8.91709 15.2988 9.02666 15.2988 9.09326 15.2262L13.9573 9.91992C14.0239 9.84727 14.0239 9.72774 13.9573 9.65508L13.1087 8.72695Z" fill="black"/>
</svg>
