<svg width="26" height="24" viewBox="0 0 26 24" fill="none" xmlns="http://www.w3.org/2000/svg">
<path d="M24.6046 8.34449L17.1661 7.26344L13.8409 0.522228C13.7501 0.337657 13.6007 0.188243 13.4161 0.097423C12.9532 -0.131093 12.3907 0.059337 12.1593 0.522228L8.83408 7.26344L1.39561 8.34449C1.19053 8.37379 1.00303 8.47047 0.859476 8.61695C0.685926 8.79533 0.590292 9.03531 0.593588 9.28417C0.596884 9.53302 0.698841 9.77038 0.877054 9.9441L6.25889 15.1912L4.98741 22.6004C4.95759 22.7727 4.97666 22.95 5.04246 23.112C5.10826 23.2741 5.21815 23.4145 5.35968 23.5173C5.5012 23.6201 5.6687 23.6811 5.84317 23.6936C6.01764 23.706 6.1921 23.6693 6.34678 23.5877L13.0001 20.0896L19.6534 23.5877C19.8351 23.6843 20.046 23.7166 20.2481 23.6814C20.7579 23.5935 21.1007 23.1101 21.0128 22.6004L19.7413 15.1912L25.1231 9.9441C25.2696 9.80055 25.3663 9.61305 25.3956 9.40797C25.4747 8.89527 25.1173 8.42067 24.6046 8.34449V8.34449Z" fill="#FA8C16"/>
</svg>
