<svg width="26" height="24" viewBox="0 0 26 24" fill="none" xmlns="http://www.w3.org/2000/svg">
<path d="M24.6046 8.34474L17.1661 7.26368L13.8409 0.522472C13.7501 0.337901 13.6007 0.188487 13.4161 0.0976671C12.9532 -0.130849 12.3907 0.0595812 12.1593 0.522472L8.83408 7.26368L1.39561 8.34474C1.19053 8.37403 1.00303 8.47071 0.859476 8.6172C0.685926 8.79558 0.590292 9.03556 0.593588 9.28441C0.596884 9.53326 0.698841 9.77063 0.877054 9.94435L6.25889 15.1914L4.98741 22.6006C4.95759 22.773 4.97666 22.9502 5.04246 23.1123C5.10826 23.2743 5.21815 23.4147 5.35968 23.5175C5.5012 23.6203 5.6687 23.6814 5.84317 23.6938C6.01764 23.7063 6.1921 23.6696 6.34678 23.5879L13.0001 20.0899L19.6534 23.5879C19.8351 23.6846 20.046 23.7168 20.2481 23.6817C20.7579 23.5938 21.1007 23.1104 21.0128 22.6006L19.7413 15.1914L25.1231 9.94435C25.2696 9.80079 25.3663 9.61329 25.3956 9.40821C25.4747 8.89552 25.1173 8.42091 24.6046 8.34474V8.34474Z" fill="#EFEFEF"/>
</svg>
