<svg width="22" height="24" viewBox="0 0 22 24" fill="none" xmlns="http://www.w3.org/2000/svg">
<path d="M18.3563 18.7711C18.3605 18.7641 18.367 18.757 18.3713 18.75C19.7785 16.9242 20.625 14.5711 20.625 12C20.625 9.42891 19.7785 7.07578 18.3734 5.25C18.3691 5.24297 18.3627 5.23828 18.3584 5.23125C18.3348 5.20078 18.3133 5.17266 18.2896 5.14453C18.2811 5.13281 18.2725 5.12344 18.2639 5.11172L18.1758 5.00156L18.1736 4.99922C18.1414 4.95938 18.107 4.91953 18.0748 4.87969L18.0727 4.87734C18.0039 4.79766 17.9352 4.71797 17.8643 4.64062L17.8621 4.63828L17.759 4.52578L17.7525 4.51875C17.7203 4.48359 17.6881 4.45078 17.6559 4.41797C17.6451 4.40625 17.6344 4.39453 17.6215 4.38281C17.6 4.35938 17.5785 4.33828 17.557 4.31719C17.5506 4.31016 17.542 4.30312 17.5355 4.29375C15.8211 2.55937 13.5244 1.5 11 1.5C8.47559 1.5 6.17891 2.55937 4.4623 4.29375C4.45586 4.30078 4.44727 4.30781 4.44082 4.31719C4.41934 4.33828 4.39785 4.36172 4.37637 4.38516C4.36562 4.39688 4.35488 4.40859 4.34199 4.42031C4.30977 4.45313 4.27754 4.48828 4.24531 4.52109L4.23887 4.52812L4.13574 4.64062L4.13359 4.64297C4.0627 4.72031 3.99395 4.8 3.9252 4.87969L3.92305 4.88203C3.88867 4.92188 3.85645 4.96172 3.82422 5.00156L3.82207 5.00391C3.79199 5.03906 3.76191 5.07656 3.73398 5.11406C3.72539 5.12578 3.7168 5.13516 3.7082 5.14688C3.68457 5.175 3.66309 5.20547 3.63945 5.23359C3.63516 5.24063 3.62871 5.24531 3.62441 5.25234C2.22148 7.07578 1.375 9.42891 1.375 12C1.375 14.5711 2.22148 16.9242 3.62656 18.75C3.63086 18.757 3.6373 18.7641 3.6416 18.7711L3.7082 18.8578C3.7168 18.8695 3.72539 18.8789 3.73398 18.8906L3.82207 19.0008C3.82207 19.0031 3.82422 19.0031 3.82422 19.0055C3.85645 19.0453 3.88867 19.0852 3.92305 19.1227L3.9252 19.125C3.99395 19.2047 4.0627 19.2844 4.13145 19.3617L4.13359 19.3641C4.16797 19.4016 4.2002 19.4391 4.23457 19.4742L4.24102 19.4813C4.31191 19.5586 4.38496 19.6336 4.45801 19.7062C6.17891 21.4406 8.47559 22.5 11 22.5C13.5244 22.5 15.8211 21.4406 17.5377 19.7062C17.6109 19.6331 17.6825 19.558 17.7525 19.4813L17.759 19.4742C17.7934 19.4367 17.8277 19.4016 17.86 19.3641L17.8621 19.3617C17.933 19.2844 18.0018 19.2047 18.0684 19.125L18.0705 19.1227C18.1027 19.0828 18.1371 19.0453 18.1693 19.0055C18.1693 19.0031 18.1715 19.0031 18.1715 19.0008C18.2016 18.9656 18.2316 18.9281 18.2596 18.8906C18.2682 18.8789 18.2768 18.8695 18.2854 18.8578C18.3096 18.8296 18.3333 18.8006 18.3563 18.7711ZM18.4443 15.4289C18.1479 16.193 17.7568 16.9008 17.2799 17.543C16.7427 17.0365 16.1554 16.5971 15.5289 16.2328C15.7781 15.1336 15.9328 13.9266 15.9736 12.6562H19.0566C18.9922 13.6148 18.7859 14.5453 18.4443 15.4289ZM19.0566 11.3438H15.9736C15.9328 10.0734 15.7781 8.86641 15.5289 7.76719C16.1584 7.40156 16.7449 6.96094 17.2799 6.45703C18.3167 7.84916 18.9368 9.55485 19.0566 11.3438ZM14.1432 3.87891C14.9961 4.27266 15.7717 4.81641 16.4549 5.50078C16.058 5.86944 15.6308 6.19739 15.1787 6.48047C14.8414 5.42578 14.4096 4.50938 13.9068 3.77578C13.9863 3.80859 14.0658 3.84375 14.1432 3.87891ZM12.1967 20.2992C11.999 20.468 11.8014 20.5969 11.6016 20.6836V16.3359C12.454 16.4008 13.2924 16.6079 14.0873 16.95C13.909 17.5266 13.7027 18.0586 13.4643 18.5391C13.0904 19.2984 12.6521 19.9055 12.1967 20.2992ZM13.4643 5.46094C13.7006 5.94375 13.909 6.47578 14.0873 7.05C13.2924 7.39209 12.454 7.59918 11.6016 7.66406V3.31875C11.7992 3.40547 11.999 3.53203 12.1967 3.70312C12.6521 4.09453 13.0904 4.70156 13.4643 5.46094ZM11.6016 15.0211V12.6562H14.7705C14.7361 13.6922 14.618 14.6977 14.4203 15.6516L14.4139 15.6797C13.5122 15.3067 12.5641 15.0847 11.6016 15.0211ZM11.6016 11.3438V8.97891C12.5855 8.91328 13.5309 8.68594 14.4139 8.32031L14.4203 8.34844C14.618 9.30234 14.7361 10.3055 14.7705 11.3438H11.6016ZM10.3984 12.6562V15.0211C9.41445 15.0867 8.46914 15.3141 7.58613 15.6797L7.57969 15.6516C7.38203 14.6977 7.26387 13.6945 7.22949 12.6562H10.3984ZM7.22949 11.3438C7.26387 10.3078 7.38203 9.30234 7.57969 8.34844L7.58613 8.32031C8.46914 8.68594 9.4123 8.91328 10.3984 8.97891V11.3438H7.22949ZM10.3984 16.3359V20.6813C10.2008 20.5945 10.001 20.468 9.80332 20.2969C9.34785 19.9055 8.90742 19.2961 8.53359 18.5367C8.29727 18.0539 8.08887 17.5219 7.91055 16.9477C8.70977 16.6055 9.54121 16.4016 10.3984 16.3359ZM10.3984 7.66406C9.54596 7.59918 8.70763 7.39209 7.91269 7.05C8.09102 6.47344 8.29727 5.94141 8.53574 5.46094C8.90957 4.70156 9.34785 4.09219 9.80547 3.70078C10.0031 3.53203 10.2008 3.40313 10.4006 3.31641V7.66406H10.3984ZM7.85684 3.87891C7.93633 3.84375 8.01367 3.80859 8.09316 3.77578C7.59043 4.50938 7.15859 5.42578 6.82129 6.48047C6.37012 6.19922 5.94258 5.87109 5.54512 5.50078C6.22832 4.81641 7.00391 4.27266 7.85684 3.87891ZM3.55566 8.57109C3.85215 7.80703 4.24316 7.09922 4.72012 6.45703C5.25508 6.96094 5.8416 7.40156 6.47109 7.76719C6.22188 8.86641 6.06719 10.0734 6.02637 11.3438H2.94336C3.00781 10.3852 3.21406 9.45469 3.55566 8.57109ZM2.94336 12.6562H6.02637C6.06719 13.9266 6.22188 15.1336 6.47109 16.2328C5.84457 16.5971 5.25727 17.0365 4.72012 17.543C3.68334 16.1508 3.06317 14.4451 2.94336 12.6562ZM7.85684 20.1211C7.00391 19.7273 6.22832 19.1836 5.54512 18.4992C5.94258 18.1289 6.37012 17.8031 6.82129 17.5195C7.15859 18.5742 7.59043 19.4906 8.09316 20.2242C8.01367 20.1914 7.93418 20.1562 7.85684 20.1211ZM14.1432 20.1211C14.0637 20.1562 13.9863 20.1914 13.9068 20.2242C14.4096 19.4906 14.8414 18.5742 15.1787 17.5195C15.6299 17.8008 16.0574 18.1289 16.4549 18.4992C15.7755 19.1807 14.9934 19.7294 14.1432 20.1211Z" fill="black"/>
</svg>
